:SAMPLES-PER-SECOND 30
:FULLY-SPECIFIED
:DEGREES
174
root  -63.8413 39.9108 15.0128 174.239 12.8342 175.483
RightUpLeg  -7.63606 -24.4432 -21.5223
RightLeg  22.8739 -7.94253 -3.87775
RightFoot  -6.31996 0.0192013 -1.3932
RightToes  -8.73116e-010 0 -3.6325e-017
Spine  27.7185 -0.214378 -0.813714
Spine1  12.7006 1.11629 -5.96558
HEad  -14.7251 -11.6749 6.433
LeftShoulder1  0.546835 2.01203 -30.6239
LeftArm  -16.939 10.4887 -35.362
LeftForeArm  78.0115 -79.2011 -93.2324
LeftHand  0.0182793 -0.0116269 -0.391873
RightShoulder  -0.500974 -4.89023 29.2628
RightArm  -10.998 -5.88805 39.9435
RightForeArm  79.2041 78.0613 108.167
RightHand  -0.321477 5.9086 -3.63103
LeftUpLeg  -4.15384 15.6231 7.39996
LeftLeg  15.7207 33.0835 4.24366
LeftFoot  2.91187 0.0933005 -0.890297
LeftToes  -5.63919e-011 3.32596e-011 1.92487e-011
175
root  -63.1782 39.9475 15.0453 174.911 17.8232 175.412
RightUpLeg  -7.15728 -27.4958 -20.3033
RightLeg  19.259 -8.73441 -3.583
RightFoot  -5.79405 -0.0271995 -0.169645
RightToes  -8.73116e-010 0 -3.6325e-017
Spine  25.8877 0.0705105 -1.03078
Spine1  13.0378 0.867042 -4.13598
HEad  -14.9205 -11.5532 4.716
LeftShoulder1  0.394419 2.47112 -32.0426
LeftArm  -16.6671 9.92716 -34.5075
LeftForeArm  74.53 -79.1951 -90.2706
LeftHand  0.0127738 -0.1528 -0.247147
RightShoulder  -0.463915 -4.82622 28.1858
RightArm  -11.2182 -7.00719 40.8132
RightForeArm  83.8835 77.7055 112.826
RightHand  -0.353324 5.26029 -4.15367
LeftUpLeg  -2.78882 15.4317 9.18722
LeftLeg  14.2749 37.8623 3.97055
LeftFoot  4.45888 0.211899 -1.71277
LeftToes  -5.63919e-011 3.32596e-011 1.92487e-011
176
root  -62.3409 39.9546 15.0627 175.405 22.2881 175.435
RightUpLeg  -6.45243 -29.3159 -18.6982
RightLeg  16.2455 -9.11336 -3.11549
RightFoot  -4.50795 -0.362473 5.25044
RightToes  -8.73116e-010 0 -3.6325e-017
Spine  24.3898 -0.00586963 -1.03139
Spine1  12.8964 0.487216 -3.11179
HEad  -14.7891 -10.768 3.43849
LeftShoulder1  0.343468 2.59898 -31.8571
LeftArm  -15.6772 11.1691 -33.5891
LeftForeArm  76.8614 -79.1256 -93.747
LeftHand  -0.04079 0.284671 0.896336
RightShoulder  -0.471677 -4.82767 28.715
RightArm  -10.936 -7.81441 40.5721
RightForeArm  86.9632 77.4635 115.549
RightHand  -0.330018 5.14541 -3.94591
LeftUpLeg  -0.852309 15.4322 11.0511
LeftLeg  12.2113 41.7983 3.44713
LeftFoot  6.30679 0.405819 -2.86471
LeftToes  -5.63919e-011 3.32596e-011 1.92487e-011
177
root  -61.4184 39.9579 15.0635 176.373 26.9237 176.029
RightUpLeg  -7.31643 -30.6689 -16.185
RightLeg  14.5093 -6.31204 -1.46626
RightFoot  -0.856483 -0.700653 7.67993
RightToes  -8.73116e-010 0 -3.6325e-017
Spine  23.0031 -0.243194 -0.0822976
Spine1  12.5222 0.233817 -2.41903
HEad  -14.8069 -10.2057 1.56786
LeftShoulder1  0.282797 2.75686 -31.761
LeftArm  -15.7335 12.215 -33.1931
LeftForeArm  76.2295 -79.1198 -93.3379
LeftHand  -0.0358728 0.495729 0.793353
RightShoulder  -0.512788 -4.94157 28.7985
RightArm  -9.99602 -8.04909 40.4728
RightForeArm  87.4486 77.3959 116.145
RightHand  -0.324417 5.72114 -3.6997
LeftUpLeg  1.03292 15.9632 13.2752
LeftLeg  10.2145 44.9313 3.03615
LeftFoot  7.63542 0.60332 -3.87552
LeftToes  -5.63919e-011 3.32596e-011 1.92487e-011
178
root  -60.4314 39.9912 15.0189 178.263 31.663 177.506
RightUpLeg  -9.52442 -30.1489 -11.9936
RightLeg  14.4249 -2.728 -0.0968092
RightFoot  -0.802774 -0.506095 5.40923
RightToes  -8.73116e-010 0 -3.6325e-017
Spine  21.2711 -0.618084 1.86326
Spine1  12.0208 -0.00408441 -1.6333
HEad  -14.7315 -9.12902 -0.539031
LeftShoulder1  0.287613 2.7431 -31.6983
LeftArm  -15.8249 14.1445 -32.8522
LeftForeArm  78.3592 -79.0814 -95.5896
LeftHand  -0.0470295 0.430456 1.05704
RightShoulder  -0.427942 -4.71613 28.3376
RightArm  -9.00699 -8.56327 40.2697
RightForeArm  87.8662 77.2498 117.234
RightHand  -0.408989 5.07083 -4.8606
LeftUpLeg  2.28524 16.3658 15.8033
LeftLeg  8.81745 45.4614 2.95962
LeftFoot  6.58685 0.90269 -6.06495
LeftToes  -5.63919e-011 3.32596e-011 1.92487e-011
